<svg width="544" height="572" viewBox="0 0 544 572" fill="none" xmlns="http://www.w3.org/2000/svg">
	<path d="M282.164 555.928C426.366 555.928 543.265 439.029 543.265 294.827C543.265 150.625 426.366 33.7261 282.164 33.7261C137.962 33.7261 21.0627 150.625 21.0627 294.827C21.0627 439.029 137.962 555.928 282.164 555.928Z" fill="#F2506C"/>
	<path d="M302.919 546.799C297.285 543.815 288.625 538.74 283.675 535.523C278.725 532.306 269.241 524.716 262.6 518.657C255.958 512.598 247.567 503.744 243.953 498.983C240.338 494.221 234.863 485.983 231.786 480.676C228.708 475.369 224.267 466.268 221.917 460.452C219.567 454.636 216.359 445.148 214.788 439.369C213.217 433.589 210.915 421.517 209.673 412.543C207.929 399.953 207.48 392.536 207.705 380.069C207.866 371.183 208.764 357.612 209.702 349.912C210.639 342.211 212.741 329.837 214.373 322.413C216.005 314.989 217.478 308.76 217.646 308.569C217.813 308.379 229.526 314.719 243.674 322.658C257.822 330.598 269.723 337.067 270.121 337.033C270.519 337.001 286.685 325.253 306.045 310.929L341.245 284.885L354.008 291.754C361.028 295.532 378.423 305.196 392.665 313.229L418.558 327.836L435.936 314.894C445.494 307.776 453.687 302.318 454.143 302.766C454.599 303.213 456.064 308.379 457.397 314.247C458.731 320.114 460.657 330.894 461.677 338.203C462.852 346.626 463.473 356.517 463.373 365.218C463.287 372.768 462.934 381.608 462.587 384.862C462.241 388.117 461.535 393.211 461.019 396.182C460.503 399.153 459.002 405.98 457.683 411.353C456.365 416.726 453.861 425.116 452.119 429.997C450.377 434.879 446.933 443.03 444.466 448.11C441.999 453.191 438.66 459.595 437.045 462.341C435.431 465.087 431.427 471.105 428.149 475.714C424.871 480.324 418.662 488.061 414.351 492.908C410.041 497.755 403.023 504.739 398.756 508.427C394.489 512.114 387.55 517.664 383.335 520.76C379.12 523.856 371.024 528.979 365.344 532.146C359.664 535.312 350.091 539.892 344.071 542.324C338.051 544.756 328.658 548.012 323.198 549.56C317.738 551.108 313.247 552.342 313.217 552.301C313.188 552.26 308.552 549.784 302.918 546.799L302.919 546.799Z" fill="#E5E5E5"/>
	<path d="M271.216 556.525C268.568 556.473 262.295 556.149 257.277 555.804C252.259 555.459 243.289 554.298 237.344 553.224C231.399 552.149 222.37 550.048 217.28 548.554C212.19 547.06 203.706 544.007 198.427 541.769C193.148 539.531 185.478 535.926 181.383 533.759C177.288 531.592 169.913 527.151 164.994 523.891C160.076 520.631 151.189 513.674 145.247 508.432C139.305 503.189 131.315 495.247 127.492 490.784C123.668 486.321 118.524 479.909 116.061 476.536C113.597 473.164 109.174 466.226 106.231 461.12C103.289 456.014 98.9929 447.688 96.6849 442.619C94.3769 437.55 91.0586 428.86 89.3109 423.308C87.5633 417.757 85.2333 409.183 84.1331 404.255C82.9287 398.86 81.638 387.034 80.8892 374.533C79.8896 357.84 79.9527 351.027 81.2119 339.778C82.0732 332.083 82.9298 325.61 83.1154 325.393C83.3011 325.177 91.9975 329.81 102.441 335.689C113.114 341.697 121.957 346.024 122.636 345.569C123.301 345.124 130.162 340.07 137.884 334.338C145.952 328.349 151.599 323.458 151.16 322.839C150.727 322.228 150.924 322.043 151.615 322.413C152.284 322.771 161.246 316.84 171.529 309.234C181.813 301.627 190.821 295 191.548 294.506C192.372 293.946 197.131 295.969 204.175 299.873C210.392 303.319 216.486 306.862 217.717 307.745C218.948 308.628 219.337 309.085 218.582 308.76C217.827 308.435 217.224 308.404 217.242 308.692C217.26 308.98 215.954 315.222 214.34 322.563C212.727 329.905 210.639 342.211 209.702 349.912C208.764 357.612 207.866 371.183 207.705 380.069C207.48 392.536 207.929 399.953 209.673 412.543C210.915 421.517 213.217 433.589 214.788 439.369C216.359 445.148 219.567 454.636 221.917 460.452C224.267 466.268 228.708 475.368 231.786 480.675C234.863 485.982 240.338 494.218 243.952 498.977C247.567 503.735 255.806 512.465 262.262 518.376C268.719 524.287 278.323 531.973 283.604 535.456C288.886 538.939 297.674 544.048 303.133 546.81L313.059 551.831L308.887 552.842C306.592 553.398 298.261 554.476 290.373 555.236C282.485 555.997 273.864 556.577 271.216 556.525V556.525Z" fill="#CBCBCB"/>
	<path d="M164.885 264.809C161.144 260.645 154.259 254.367 149.584 250.857C144.91 247.348 138.091 242.747 134.432 240.635C130.773 238.522 121.855 234.341 114.614 231.344C107.373 228.347 97.6675 225.042 93.0468 224.001L84.6456 222.108L84.37 217.7C84.2184 215.276 82.9027 209.564 81.4462 205.005C79.9898 200.447 76.8469 193.373 74.4621 189.286C72.0773 185.199 67.2854 179.085 63.8136 175.7L57.5012 169.544L62.7771 169.975C65.6787 170.211 73.6614 171.649 80.5164 173.17C87.3713 174.691 95.9331 177.014 99.5424 178.333C103.152 179.651 110.059 182.439 114.892 184.529C119.726 186.618 127.423 190.5 131.997 193.153C136.572 195.807 144.095 200.746 148.715 204.129C153.335 207.512 159.934 212.923 163.38 216.155C166.825 219.386 172.086 224.581 175.07 227.699L180.496 233.37L179.356 241.325C178.728 245.701 177.045 254.163 175.616 260.131C174.186 266.098 172.718 271.296 172.352 271.68C171.986 272.065 168.626 268.973 164.885 264.809V264.809ZM170.866 197.681C165.033 192.749 155.699 185.759 150.122 182.149C144.546 178.539 137.897 174.452 135.347 173.066C132.797 171.68 125.216 168.199 118.5 165.33C111.784 162.461 100.574 158.63 93.5896 156.815C86.605 155.001 76.1327 152.797 70.3178 151.918C64.5029 151.038 55.5584 150.284 50.4411 150.242L41.1369 150.165L41.1815 144.943C41.2061 142.072 40.1745 136.067 38.8889 131.6C37.6034 127.133 35.048 120.636 33.2102 117.163C31.3725 113.689 27.09 107.238 23.6938 102.826C20.2976 98.4145 13.146 90.7917 7.80145 85.8864C2.34402 80.8776 -0.965536 77.1791 0.251823 77.4495C1.44408 77.7157 4.83442 78.0974 7.78619 78.3006C10.738 78.5038 17.5224 79.3236 22.8626 80.1219C28.2028 80.9202 36.9621 82.5556 42.3274 83.7556C47.6928 84.9557 56.4977 87.3231 61.8939 89.0169C67.2902 90.7107 76.03 93.9912 81.3157 96.3069C86.6014 98.6222 96.0437 103.492 102.299 107.126C108.553 110.761 117.906 117.056 123.082 121.115C128.258 125.174 136.041 132.046 140.377 136.387C144.714 140.727 151.305 148.176 155.026 152.94C158.746 157.704 164.027 165.048 166.762 169.259C169.497 173.471 173.924 181.282 176.6 186.616C180.458 194.311 181.465 197.385 181.467 201.483L181.469 206.65L170.866 197.681Z" fill="#55D152"/>
	<path d="M170.164 222.815C164.847 217.457 156.205 209.816 150.959 205.836C145.714 201.855 137.431 196.291 132.552 193.471C127.673 190.65 119.726 186.63 114.893 184.536C110.059 182.442 103.152 179.651 99.5424 178.332C95.9331 177.014 87.3714 174.691 80.5164 173.17C73.6614 171.649 65.6802 170.211 62.7804 169.975C58.9814 169.665 55.3604 168.229 49.8235 164.836C45.5971 162.246 41.6616 160 41.0779 159.845C40.4455 159.676 40.1998 157.663 40.4697 154.862L40.9229 150.16L50.334 150.239C55.5101 150.283 64.5028 151.038 70.3177 151.917C76.1326 152.797 86.605 155.001 93.5896 156.815C100.574 158.629 111.784 162.461 118.5 165.33C125.216 168.199 132.797 171.68 135.347 173.066C137.897 174.452 144.574 178.557 150.184 182.189C155.795 185.822 165.3 192.968 171.307 198.071L182.228 207.348L181.691 218.574C181.396 224.748 180.857 230.42 180.493 231.178C180.057 232.085 176.524 229.224 170.163 222.815L170.164 222.815Z" fill="#45B842"/>
	<path d="M252.551 327.192C238.034 319.038 235.277 317.089 234.973 314.769C234.775 313.255 233.697 307.024 232.579 300.922C231.418 294.59 229.752 277.259 228.699 260.552C227.291 238.219 227.095 227.713 227.873 216.25C228.434 207.986 229.717 195.642 230.724 188.819C231.732 181.996 233.679 171.356 235.053 165.174C236.426 158.992 238.972 149.214 240.71 143.445C242.447 137.676 246.369 127.028 249.426 119.784C252.482 112.539 258.373 100.868 262.517 93.8492L270.051 81.0874L275.801 81.0158C278.964 80.977 287.122 81.5741 293.93 82.3462C300.738 83.1182 309.709 84.2945 313.866 84.9601C318.022 85.626 327.161 87.7065 334.175 89.5832C341.189 91.4598 347.468 92.6133 348.127 92.1464C348.826 91.6517 349.072 91.7732 348.716 92.4392C348.361 93.1029 355.565 96.7395 365.927 101.127C375.729 105.277 388.496 111.632 394.299 115.248C400.101 118.863 409.442 125.863 415.057 130.802C420.672 135.741 427.85 143.227 431.008 147.438C434.166 151.65 438.545 158.83 440.738 163.396C443.008 168.12 445.483 175.494 446.483 180.511C447.76 186.919 448.055 191.423 447.565 197.009C447.192 201.249 445.633 207.745 444.085 211.502C442.453 215.466 439.51 220.046 437.043 222.459C434.713 224.74 430.217 228.133 427.054 229.999C423.891 231.866 418.281 234.445 414.588 235.732C409.395 237.541 404.131 238.292 391.368 239.047C382.29 239.585 371.712 239.629 367.861 239.147C364.011 238.665 356.033 237.382 350.134 236.296C341.617 234.729 339.247 234.614 338.626 235.742C338.024 236.837 337.818 236.796 337.728 235.566C337.652 234.525 334.494 233.114 328.641 231.509C323.707 230.155 313.771 227.001 306.561 224.499C299.351 221.997 287.76 217.375 280.803 214.228C273.846 211.081 263.746 206.206 258.358 203.396C252.97 200.585 248.39 198.482 248.179 198.72C247.968 198.959 251.919 203.511 256.959 208.835C261.999 214.158 271.033 222.116 277.036 226.517C283.039 230.919 291.443 236.541 295.712 239.011C299.981 241.48 308.911 245.841 315.556 248.701C322.201 251.562 331.303 254.844 335.784 255.995C340.264 257.146 344.364 258.394 344.893 258.768C345.423 259.143 346.983 263.629 348.36 268.739C349.737 273.848 351.374 280.762 351.997 284.103C352.62 287.444 352.802 290.198 352.403 290.223C352.001 290.248 349.495 288.962 346.832 287.365C344.169 285.768 341.739 284.477 341.433 284.497C341.127 284.516 326.491 295.182 308.908 308.198C291.325 321.215 275.327 332.99 273.355 334.365L269.771 336.865L252.551 327.192ZM405.778 196.04C406.876 194.796 407.728 193.037 407.671 192.132C407.615 191.227 406.319 189.385 404.792 188.037C403.265 186.69 401.275 185.634 400.37 185.691C399.465 185.747 397.827 186.811 396.729 188.056C395.631 189.3 394.793 191.276 394.866 192.447C394.939 193.618 396.017 195.475 397.261 196.573C398.506 197.67 400.482 198.509 401.653 198.435C402.824 198.362 404.68 197.284 405.778 196.04ZM437.36 187.628C438.442 186.959 439.775 185.433 440.322 184.236C441.037 182.673 440.92 181.41 439.905 179.745C439.129 178.471 437.945 177.109 437.274 176.719C436.603 176.33 435.215 176.056 434.189 176.111C433.164 176.167 431.427 177.229 430.329 178.473C429.232 179.718 428.393 181.694 428.467 182.865C428.54 184.036 429.618 185.892 430.862 186.99C432.106 188.088 433.635 188.954 434.259 188.915C434.883 188.876 436.279 188.297 437.36 187.628V187.628ZM295.592 136.935C298.84 134.37 300.819 133.669 305.671 133.366C310.61 133.057 312.561 133.504 316.395 135.82C320.242 138.145 321.562 138.445 323.772 137.496C325.253 136.861 326.771 135.309 327.147 134.048C327.543 132.72 327.238 130.731 326.422 129.322C325.647 127.983 322.569 125.581 319.584 123.984C314.632 121.334 313.345 121.13 304.939 121.656C296.537 122.181 295.28 122.544 290.708 125.783C287.95 127.736 285.071 130.626 284.31 132.205C283.075 134.77 283.14 135.362 284.925 137.747C286.066 139.27 287.917 140.354 289.237 140.272C290.51 140.192 293.37 138.691 295.592 136.935L295.592 136.935ZM373.61 131.787C376.822 129.457 379.821 128.193 382.539 128.023C384.789 127.882 388.555 128.601 390.907 129.621C393.259 130.642 395.514 131.943 395.918 132.514C396.322 133.085 397.664 133.489 398.901 133.412C400.138 133.334 401.976 132.423 402.987 131.388C403.997 130.352 404.754 128.399 404.67 127.049C404.585 125.699 403.374 123.627 401.977 122.445C400.58 121.262 396.972 119.31 393.957 118.106C390.068 116.552 386.622 116.036 382.09 116.328C377.965 116.586 374.054 117.615 371.048 119.209C368.488 120.566 365.154 123.019 363.64 124.658C362.127 126.298 360.947 128.589 361.02 129.751C361.093 130.913 362 132.69 363.036 133.7C364.072 134.711 365.787 135.483 366.847 135.416C367.906 135.35 370.95 133.717 373.61 131.787V131.787ZM180.731 179.653C180.257 172.041 180.241 169.056 180.694 173.02C181.148 176.984 181.536 183.212 181.557 186.86C181.577 190.508 181.205 187.265 180.731 179.653L180.731 179.653Z" fill="#55D152"/>
	<path d="M157.161 312.518C160.365 306.34 164.953 295.927 167.357 289.379C169.761 282.831 173.388 271.118 175.418 263.349C177.448 255.581 179.583 244.626 180.161 239.006C180.739 233.386 181.425 224.445 181.684 219.139C181.943 213.832 181.748 198.695 181.251 185.5C180.754 172.305 180.529 156.689 180.752 150.797C180.974 144.905 182.053 135.522 183.148 129.947C184.244 124.371 186.657 116.424 188.512 112.287C190.366 108.15 194.154 102.192 196.928 99.0465C199.703 95.9014 204.803 91.7262 208.262 89.7679C211.72 87.8097 217.332 85.3092 220.732 84.2112C224.132 83.1132 227.053 82.0577 227.222 81.8661C227.391 81.6738 226.376 78.491 224.966 74.7919C223.556 71.0931 220.002 63.9657 217.068 58.9531C214.134 53.9406 210.06 47.7062 208.015 45.0988C205.97 42.4914 201.527 37.4784 198.141 33.9589C194.756 30.4394 192.139 27.3955 192.327 27.1948C192.514 26.9937 195.569 27.0864 199.116 27.4031C202.663 27.7186 209.118 29.4438 213.461 31.2368C218.664 33.3851 224.394 37.0164 230.263 41.8833C235.161 45.946 241.788 52.6114 244.99 56.6957C248.191 60.7799 253.038 67.6578 255.759 71.9792C259.024 77.1634 261.525 80.0018 263.11 80.3223C264.431 80.5881 266.59 80.7469 267.907 80.6724C270.051 80.5384 269.5 81.9064 262.636 93.6177C258.419 100.812 252.47 112.606 249.414 119.828C246.359 127.049 242.439 137.676 240.705 143.445C238.97 149.214 236.426 158.992 235.053 165.174C233.679 171.356 231.731 181.996 230.724 188.819C229.717 195.642 228.428 207.986 227.861 216.251C227.04 228.196 227.253 237.608 228.901 262.142C230.219 281.775 231.799 297.33 233.244 304.888C234.494 311.422 235.372 316.778 235.197 316.789C235.022 316.8 225.663 311.614 214.399 305.265C203.136 298.915 193.41 293.752 192.786 293.791C192.163 293.83 182.581 300.587 171.494 308.807L151.336 323.752L157.161 312.518ZM336.852 256.358C332.383 255.185 323.293 251.946 316.653 249.161C310.013 246.376 300.981 242.027 296.581 239.497C292.181 236.967 283.545 231.229 277.389 226.745C271.233 222.261 262.056 214.218 256.996 208.873C251.936 203.527 247.968 198.958 248.179 198.719C248.389 198.48 252.97 200.584 258.358 203.394C263.746 206.205 273.846 211.079 280.803 214.227C287.759 217.374 299.35 221.996 306.561 224.498C313.771 226.999 323.658 230.141 328.531 231.479L337.393 233.911L341.417 245.939C343.63 252.554 345.337 258.085 345.209 258.229C345.082 258.374 341.321 257.532 336.852 256.358V256.358ZM397.261 196.572C396.017 195.475 394.939 193.618 394.866 192.447C394.793 191.276 395.631 189.3 396.729 188.056C397.826 186.811 399.465 185.747 400.37 185.691C401.275 185.634 403.265 186.69 404.792 188.037C406.319 189.385 407.614 191.227 407.671 192.132C407.728 193.037 406.876 194.796 405.778 196.04C404.68 197.284 402.824 198.362 401.653 198.435C400.482 198.509 398.506 197.67 397.261 196.572V196.572ZM430.862 186.99C429.618 185.892 428.54 184.036 428.467 182.865C428.393 181.694 429.232 179.717 430.329 178.473C431.427 177.229 433.164 176.166 434.19 176.111C435.215 176.054 436.603 176.329 437.274 176.719C437.945 177.109 439.129 178.471 439.905 179.745C440.92 181.41 441.037 182.673 440.322 184.236C439.775 185.433 438.442 186.959 437.36 187.628C436.279 188.297 434.883 188.876 434.259 188.915C433.635 188.954 432.106 188.088 430.862 186.99V186.99ZM338.426 90.7084C332.824 89.0623 323.246 86.7444 317.143 85.5575L306.045 83.3994L304.911 75.8449C304.287 71.6903 302.609 65.022 301.181 61.0267C299.753 57.0318 295.858 48.9658 292.526 43.1026C289.097 37.0683 282.488 27.8336 277.298 21.823C268.319 11.4253 268.19 11.2006 271.118 11.0175C272.762 10.9147 276.648 11.4154 279.753 12.1301C282.859 12.8447 288.491 14.9878 292.269 16.8923C296.047 18.7968 301.879 22.6181 305.23 25.384C308.581 28.1498 314.4 34.0433 318.162 38.4807C321.924 42.9185 328.686 52.9559 333.188 60.7862C337.691 68.6166 343.091 79.2447 345.188 84.4039C347.285 89.5631 348.913 93.7658 348.806 93.7433C348.699 93.7122 344.029 92.3549 338.426 90.7084V90.7084Z" fill="#45B842"/>
	<path d="M287.008 138.748C285.649 137.918 284.471 136.157 284.388 134.836C284.305 133.515 285.478 131.119 286.994 129.512C288.51 127.905 291.31 125.676 293.217 124.559C295.124 123.441 299.183 122.11 302.237 121.601C306.026 120.969 309.596 121.14 313.472 122.174C316.597 123 320.876 125.007 322.982 126.634C325.318 128.44 326.872 130.578 326.968 132.12C327.062 133.622 326.118 135.401 324.642 136.506C322.604 138.031 321.701 138.16 319.61 137.22C318.209 136.591 315.864 135.261 314.4 134.264C312.53 132.992 309.959 132.565 305.761 132.831C300.905 133.138 298.922 133.863 295.192 136.694C292.666 138.61 290.348 140.196 290.039 140.217C289.73 140.239 288.366 139.578 287.008 138.748V138.748ZM363.392 133.497C362.147 132.399 361.083 130.761 361.027 129.856C360.97 128.951 361.986 127.006 363.285 125.535C364.583 124.062 367.622 121.689 370.038 120.26C372.454 118.831 376.922 117.246 379.968 116.738C383.72 116.112 387.313 116.278 391.112 117.294C394.195 118.108 398.482 120.242 400.639 122.036C402.795 123.829 404.609 126.079 404.669 127.034C404.728 127.99 403.856 129.815 402.73 131.091C401.355 132.65 399.952 133.229 398.455 132.855C397.23 132.549 394.461 131.254 392.303 129.979C389.403 128.265 386.931 127.75 382.832 128.006C378.434 128.281 376.356 129.071 372.799 131.82C370.332 133.728 367.715 135.334 366.984 135.39C366.252 135.436 364.636 134.595 363.392 133.497V133.497Z" fill="#4C4E4C"/>
</svg>
